<?xml version="1.0" standalone="no"?>
<!DOCTYPE svg PUBLIC "-//W3C//DTD SVG 20010904//EN"
 "http://www.w3.org/TR/2001/REC-SVG-20010904/DTD/svg10.dtd">
<svg version="1.0" xmlns="http://www.w3.org/2000/svg"
 width="240.000000pt" height="234.000000pt" viewBox="0 0 240.000000 234.000000"
 preserveAspectRatio="xMidYMid meet">

<g transform="translate(0.000000,234.000000) scale(0.100000,-0.100000)"
fill="#000000" stroke="none">
<path d="M552 2305 c-228 -64 -393 -208 -475 -416 -41 -102 -50 -160 -45 -288
4 -98 10 -129 36 -199 75 -200 223 -347 422 -418 99 -36 278 -45 385 -20 87
21 197 73 261 125 l49 40 536 -535 c555 -555 553 -553 580 -502 10 18 -44 76
-525 557 l-535 536 30 40 c45 59 96 171 115 250 25 107 16 286 -20 385 -71
199 -218 347 -418 422 -74 28 -97 32 -213 34 -93 3 -145 0 -183 -11z m313 -80
c389 -99 574 -539 378 -893 -152 -274 -510 -383 -798 -242 -135 66 -255 201
-305 341 -31 88 -39 259 -16 349 54 214 226 389 436 444 73 20 231 20 305 1z"/>
</g>
</svg>
