<?xml version="1.0" encoding="UTF-8"?>
<svg xmlns="http://www.w3.org/2000/svg" xmlns:xlink="http://www.w3.org/1999/xlink" width="20pt" height="20pt" viewBox="0 0 20 20" version="1.1">
<g id="surface1">
<path style=" stroke:none;fill-rule:nonzero;fill:rgb(0%,0%,0%);fill-opacity:1;" d="M 7.152344 2.503906 C 7.074219 2.507812 6.957031 2.523438 6.867188 2.546875 L 6.828125 2.554688 L 6.554688 2.710938 C 6.40625 2.796875 6.28125 2.867188 6.277344 2.867188 C 6.269531 2.875 6.230469 2.804688 6.742188 3.695312 C 6.859375 3.890625 7.035156 4.199219 7.140625 4.378906 C 7.242188 4.558594 7.441406 4.902344 7.582031 5.148438 C 7.722656 5.390625 7.894531 5.6875 7.960938 5.804688 C 8.03125 5.921875 8.101562 6.050781 8.125 6.085938 C 8.144531 6.117188 8.226562 6.257812 8.304688 6.398438 C 8.382812 6.539062 8.453125 6.652344 8.453125 6.652344 C 8.457031 6.65625 8.554688 6.601562 8.585938 6.578125 C 8.65625 6.527344 8.734375 6.441406 8.792969 6.351562 C 8.953125 6.113281 9.011719 5.820312 8.964844 5.492188 C 8.957031 5.429688 9 5.566406 8.546875 4.164062 C 8.457031 3.898438 8.355469 3.578125 8.316406 3.453125 C 8.226562 3.179688 8.21875 3.152344 8.183594 3.089844 C 8.046875 2.8125 7.820312 2.617188 7.539062 2.539062 C 7.421875 2.507812 7.285156 2.496094 7.152344 2.503906 Z M 7.152344 2.503906 "/>
<path style=" stroke:none;fill-rule:nonzero;fill:rgb(0%,0%,0%);fill-opacity:1;" d="M 5.695312 3.199219 C 5.617188 3.246094 5.53125 3.292969 5.515625 3.308594 C 5.398438 3.386719 5.285156 3.496094 5.214844 3.597656 C 5.1875 3.640625 5.15625 3.714844 5.101562 3.878906 C 4.914062 4.4375 4.789062 5.140625 4.753906 5.84375 C 4.738281 6.15625 4.738281 6.5625 4.753906 6.871094 C 4.828125 8.304688 5.207031 9.769531 5.875 11.242188 C 5.984375 11.480469 6.152344 11.824219 6.273438 12.054688 C 6.394531 12.28125 6.675781 12.71875 6.9375 13.09375 C 7.570312 13.988281 8.28125 14.78125 9.046875 15.441406 C 9.835938 16.117188 10.703125 16.664062 11.578125 17.039062 C 12.089844 17.261719 12.632812 17.429688 13.039062 17.492188 C 13.085938 17.5 13.09375 17.5 13.140625 17.496094 C 13.226562 17.488281 13.308594 17.46875 13.398438 17.441406 C 13.484375 17.414062 13.558594 17.378906 13.679688 17.308594 C 13.746094 17.273438 13.835938 17.222656 13.878906 17.195312 C 13.953125 17.152344 13.957031 17.152344 13.953125 17.144531 C 13.949219 17.140625 13.90625 17.0625 13.855469 16.976562 C 13.804688 16.886719 13.6875 16.683594 13.59375 16.523438 C 13.5 16.359375 13.390625 16.164062 13.34375 16.089844 C 13.300781 16.015625 13.191406 15.828125 13.105469 15.675781 C 13.019531 15.523438 12.71875 15.007812 12.441406 14.523438 C 12.164062 14.042969 11.898438 13.585938 11.855469 13.507812 C 11.789062 13.394531 11.773438 13.367188 11.777344 13.363281 C 11.78125 13.359375 11.777344 13.359375 11.769531 13.367188 C 11.761719 13.371094 11.679688 13.417969 11.585938 13.46875 L 11.417969 13.566406 L 11.402344 13.558594 C 11.390625 13.554688 11.34375 13.523438 11.292969 13.496094 C 10.636719 13.101562 10.039062 12.605469 9.542969 12.035156 C 9.21875 11.660156 8.933594 11.25 8.746094 10.886719 C 8.722656 10.839844 8.691406 10.785156 8.679688 10.765625 C 8.585938 10.628906 8.453125 10.382812 8.359375 10.171875 C 7.996094 9.386719 7.78125 8.5 7.730469 7.601562 C 7.71875 7.425781 7.714844 7.097656 7.722656 7.082031 C 7.722656 7.078125 7.792969 7.035156 7.875 6.988281 C 7.960938 6.941406 8.03125 6.898438 8.03125 6.898438 C 8.035156 6.898438 7.972656 6.785156 7.894531 6.652344 C 7.820312 6.519531 7.625 6.179688 7.464844 5.90625 C 7.304688 5.625 7.097656 5.269531 7.003906 5.109375 C 6.910156 4.945312 6.789062 4.734375 6.734375 4.640625 C 6.675781 4.542969 6.574219 4.367188 6.507812 4.25 C 6.4375 4.128906 6.285156 3.863281 6.164062 3.65625 C 6.046875 3.449219 5.925781 3.242188 5.902344 3.195312 C 5.875 3.152344 5.851562 3.113281 5.851562 3.113281 C 5.847656 3.113281 5.777344 3.152344 5.695312 3.199219 Z M 5.695312 3.199219 "/>
<path style=" stroke:none;fill-rule:nonzero;fill:rgb(0%,0%,0%);fill-opacity:1;" d="M 12.574219 13.015625 C 12.484375 13.023438 12.390625 13.039062 12.308594 13.070312 C 12.257812 13.085938 12.191406 13.125 12.191406 13.132812 C 12.195312 13.132812 12.234375 13.207031 12.285156 13.289062 C 12.332031 13.375 12.460938 13.597656 12.570312 13.785156 C 12.789062 14.167969 12.878906 14.320312 13.226562 14.921875 C 13.359375 15.152344 13.542969 15.472656 13.640625 15.640625 C 13.738281 15.808594 13.886719 16.066406 13.976562 16.21875 C 14.0625 16.371094 14.1875 16.585938 14.253906 16.703125 C 14.34375 16.859375 14.375 16.910156 14.378906 16.910156 C 14.382812 16.90625 14.488281 16.847656 14.617188 16.777344 L 14.847656 16.644531 L 14.886719 16.601562 C 15.09375 16.386719 15.210938 16.160156 15.25 15.914062 C 15.257812 15.859375 15.257812 15.683594 15.25 15.632812 C 15.222656 15.472656 15.164062 15.328125 15.074219 15.195312 C 15.039062 15.140625 15.03125 15.125 14.90625 14.988281 C 14.851562 14.925781 14.714844 14.769531 14.601562 14.640625 C 14.492188 14.515625 14.285156 14.28125 14.140625 14.117188 C 14 13.957031 13.789062 13.71875 13.671875 13.582031 C 13.492188 13.382812 13.449219 13.335938 13.417969 13.308594 C 13.226562 13.15625 13.027344 13.0625 12.8125 13.027344 C 12.769531 13.019531 12.648438 13.011719 12.628906 13.011719 C 12.625 13.011719 12.601562 13.015625 12.574219 13.015625 Z M 12.574219 13.015625 "/>
<path style=" stroke:none;fill-rule:nonzero;fill:rgb(0%,0%,0%);fill-opacity:1;" d="M 12.167969 13.140625 C 12.164062 13.144531 12.164062 13.144531 12.171875 13.140625 C 12.175781 13.136719 12.179688 13.136719 12.179688 13.132812 C 12.179688 13.132812 12.179688 13.132812 12.167969 13.140625 Z M 12.167969 13.140625 "/>
<path style=" stroke:none;fill-rule:nonzero;fill:rgb(0%,0%,0%);fill-opacity:1;" d="M 12.140625 13.15625 C 12.136719 13.160156 12.136719 13.160156 12.144531 13.15625 C 12.148438 13.152344 12.152344 13.152344 12.152344 13.148438 C 12.152344 13.148438 12.148438 13.148438 12.140625 13.15625 Z M 12.140625 13.15625 "/>
<path style=" stroke:none;fill-rule:nonzero;fill:rgb(0%,0%,0%);fill-opacity:1;" d="M 12.113281 13.171875 C 12.097656 13.179688 12.097656 13.179688 12.113281 13.171875 C 12.121094 13.171875 12.125 13.167969 12.125 13.164062 C 12.125 13.164062 12.125 13.164062 12.113281 13.171875 Z M 12.113281 13.171875 "/>
<path style=" stroke:none;fill-rule:nonzero;fill:rgb(0%,0%,0%);fill-opacity:1;" d="M 12.078125 13.191406 C 12.074219 13.195312 12.074219 13.195312 12.082031 13.191406 C 12.085938 13.1875 12.089844 13.1875 12.089844 13.1875 C 12.089844 13.183594 12.085938 13.183594 12.078125 13.191406 Z M 12.078125 13.191406 "/>
<path style=" stroke:none;fill-rule:nonzero;fill:rgb(0%,0%,0%);fill-opacity:1;" d="M 12.050781 13.207031 C 12.046875 13.210938 12.046875 13.210938 12.054688 13.207031 C 12.058594 13.203125 12.0625 13.203125 12.0625 13.203125 C 12.0625 13.199219 12.0625 13.199219 12.050781 13.207031 Z M 12.050781 13.207031 "/>
<path style=" stroke:none;fill-rule:nonzero;fill:rgb(0%,0%,0%);fill-opacity:1;" d="M 12.023438 13.222656 C 12.019531 13.226562 12.019531 13.226562 12.027344 13.222656 C 12.03125 13.21875 12.035156 13.21875 12.035156 13.21875 C 12.035156 13.214844 12.03125 13.214844 12.023438 13.222656 Z M 12.023438 13.222656 "/>
<path style=" stroke:none;fill-rule:nonzero;fill:rgb(0%,0%,0%);fill-opacity:1;" d="M 11.996094 13.238281 C 11.992188 13.242188 11.992188 13.242188 12 13.238281 C 12.003906 13.234375 12.007812 13.234375 12.007812 13.234375 C 12.007812 13.230469 12.007812 13.230469 11.996094 13.238281 Z M 11.996094 13.238281 "/>
<path style=" stroke:none;fill-rule:nonzero;fill:rgb(0%,0%,0%);fill-opacity:1;" d="M 11.96875 13.253906 C 11.964844 13.257812 11.964844 13.257812 11.972656 13.253906 C 11.976562 13.25 11.980469 13.25 11.980469 13.25 C 11.980469 13.246094 11.976562 13.246094 11.96875 13.253906 Z M 11.96875 13.253906 "/>
<path style=" stroke:none;fill-rule:nonzero;fill:rgb(0%,0%,0%);fill-opacity:1;" d="M 11.941406 13.269531 C 11.9375 13.273438 11.9375 13.273438 11.945312 13.269531 C 11.949219 13.265625 11.953125 13.265625 11.953125 13.265625 C 11.953125 13.261719 11.953125 13.261719 11.941406 13.269531 Z M 11.941406 13.269531 "/>
<path style=" stroke:none;fill-rule:nonzero;fill:rgb(0%,0%,0%);fill-opacity:1;" d="M 11.914062 13.285156 C 11.910156 13.289062 11.910156 13.289062 11.917969 13.285156 C 11.921875 13.28125 11.925781 13.28125 11.925781 13.28125 C 11.925781 13.277344 11.921875 13.277344 11.914062 13.285156 Z M 11.914062 13.285156 "/>
<path style=" stroke:none;fill-rule:nonzero;fill:rgb(0%,0%,0%);fill-opacity:1;" d="M 11.859375 13.316406 C 11.855469 13.320312 11.855469 13.320312 11.863281 13.316406 C 11.867188 13.3125 11.871094 13.3125 11.871094 13.3125 C 11.871094 13.308594 11.867188 13.308594 11.859375 13.316406 Z M 11.859375 13.316406 "/>
<path style=" stroke:none;fill-rule:nonzero;fill:rgb(0%,0%,0%);fill-opacity:1;" d="M 11.804688 13.347656 C 11.789062 13.355469 11.789062 13.355469 11.804688 13.351562 C 11.8125 13.347656 11.816406 13.34375 11.816406 13.34375 C 11.816406 13.339844 11.816406 13.339844 11.804688 13.347656 Z M 11.804688 13.347656 "/>
</g>
</svg>
